<?xml version="1.0" encoding="UTF-8" standalone="no"?>
<svg
   viewBox="0 0 512 512"
   version="1.1"
   id="svg4"
   sodipodi:docname="twitter.svg"
   inkscape:version="1.1.2 (b8e25be833, 2022-02-05)"
   xmlns:inkscape="http://www.inkscape.org/namespaces/inkscape"
   xmlns:sodipodi="http://sodipodi.sourceforge.net/DTD/sodipodi-0.dtd"
   xmlns="http://www.w3.org/2000/svg"
   xmlns:svg="http://www.w3.org/2000/svg">
  <defs
     id="defs8" />
  <sodipodi:namedview
     id="namedview6"
     pagecolor="#505050"
     bordercolor="#eeeeee"
     borderopacity="1"
     inkscape:pageshadow="0"
     inkscape:pageopacity="0"
     inkscape:pagecheckerboard="0"
     showgrid="false"
     inkscape:zoom="1.7050781"
     inkscape:cx="255.70676"
     inkscape:cy="255.70676"
     inkscape:window-width="2560"
     inkscape:window-height="1377"
     inkscape:window-x="-8"
     inkscape:window-y="-8"
     inkscape:window-maximized="1"
     inkscape:current-layer="svg4" />
  <!--!Font Awesome Free 6.5.2 by @fontawesome - https://fontawesome.com License - https://fontawesome.com/license/free Copyright 2024 Fonticons, Inc.-->
  <path
     d="M459.4 151.7c.3 4.5 .3 9.1 .3 13.6 0 138.7-105.6 298.6-298.6 298.6-59.5 0-114.7-17.2-161.1-47.1 8.4 1 16.6 1.3 25.3 1.3 49.1 0 94.2-16.6 130.3-44.8-46.1-1-84.8-31.2-98.1-72.8 6.5 1 13 1.6 19.8 1.6 9.4 0 18.8-1.3 27.6-3.6-48.1-9.7-84.1-52-84.1-103v-1.3c14 7.8 30.2 12.7 47.4 13.3-28.3-18.8-46.8-51-46.8-87.4 0-19.5 5.2-37.4 14.3-53 51.7 63.7 129.3 105.3 216.4 109.8-1.6-7.8-2.6-15.9-2.6-24 0-57.8 46.8-104.9 104.9-104.9 30.2 0 57.5 12.7 76.7 33.1 23.7-4.5 46.5-13.3 66.6-25.3-7.8 24.4-24.4 44.8-46.1 57.8 21.1-2.3 41.6-8.1 60.4-16.2-14.3 20.8-32.2 39.3-52.6 54.3z"
     id="path2"
     style="fill:#ff52c1;fill-opacity:1" />
</svg>
